<svg xmlns:dc="http://purl.org/dc/elements/1.1/" xmlns:cc="http://creativecommons.org/ns#" xmlns:rdf="http://www.w3.org/1999/02/22-rdf-syntax-ns#" xmlns:svg="http://www.w3.org/2000/svg" xmlns="http://www.w3.org/2000/svg" xmlns:xlink="http://www.w3.org/1999/xlink" id="svg231132" viewBox="0 0 1024 768" height="768px" width="1024px" version="1.1">
  <metadata id="metadata231138">
    <rdf:rdf>
      <cc:work rdf:about="">
        <dc:format>image/svg+xml</dc:format>
        <dc:type rdf:resource="http://purl.org/dc/dcmitype/StillImage"></dc:type>
      </cc:work>
    </rdf:rdf>
  </metadata>
  <defs id="defs231136"></defs>
  <linearGradient spreadMethod="pad" y2="30%" x2="-10%" y1="120%" x1="30%" id="3d_gradient2-logo-4877a4b9-f152-41c0-ac1e-bdac76554c72">
    <stop id="stop231113" stop-opacity="1" stop-color="#ffffff" offset="0%" style="--darkreader-inline-stopcolor: #181a1b;" data-darkreader-inline-stopcolor=""></stop>
    <stop id="stop231115" stop-opacity="1" stop-color="#000000" offset="100%" style="--darkreader-inline-stopcolor: #000000;" data-darkreader-inline-stopcolor=""></stop>
  </linearGradient>
  <linearGradient gradientTransform="rotate(-30)" spreadMethod="pad" y2="30%" x2="-10%" y1="120%" x1="30%" id="3d_gradient3-logo-4877a4b9-f152-41c0-ac1e-bdac76554c72">
    <stop id="stop231118" stop-opacity="1" stop-color="#ffffff" offset="0%" style="--darkreader-inline-stopcolor: #181a1b;" data-darkreader-inline-stopcolor=""></stop>
    <stop id="stop231120" stop-opacity="1" stop-color="#cccccc" offset="50%" style="--darkreader-inline-stopcolor: #35393b;" data-darkreader-inline-stopcolor=""></stop>
    <stop id="stop231122" stop-opacity="1" stop-color="#000000" offset="100%" style="--darkreader-inline-stopcolor: #000000;" data-darkreader-inline-stopcolor=""></stop>
  </linearGradient>
  <g id="logo-group">
    <image xlink:href="" id="container" style="display: none;" x="272" y="144" width="480" height="480" transform="translate(0 0)"></image>
    <g id="logo-center" transform="translate(0 0)">
      <image xlink:href="" id="icon_container" style="display: none;" x="0" y="0"></image>
      <g id="slogan" style="font-style:normal;font-weight:400;font-size:32px;line-height:1;font-family:Montserrat;font-variant-ligatures:none;text-align:center;text-anchor:middle" transform="translate(0 0)">
        <path id="path231140" style="font-style: normal; font-weight: 400; font-size: 32px; line-height: 1; font-family: Montserrat; font-variant-ligatures: none; text-align: center; text-anchor: middle; --darkreader-inline-fill: #a1998d; --darkreader-inline-stroke: #a1998d;" d="m 178.84,0 -2.368,-5.44 H 164.664 L 162.328,0 h -3.232 l 9.952,-22.4 h 3.2 l 9.92,22.4 z m -12.96,-8.224 h 9.408 l -4.736,-10.88 z" stroke-width="0" stroke-linejoin="miter" stroke-miterlimit="2" fill="#938f8b" stroke="#938f8b" transform="translate(0 374.6376000000001) translate(160.26274999999998 51.344) scale(1) translate(-159.096 22.4)" data-darkreader-inline-fill="" data-darkreader-inline-stroke=""></path>
        <path id="path231142" style="font-style: normal; font-weight: 400; font-size: 32px; line-height: 1; font-family: Montserrat; font-variant-ligatures: none; text-align: center; text-anchor: middle; --darkreader-inline-fill: #a1998d; --darkreader-inline-stroke: #a1998d;" d="M 199.263,-16.928 V 0 h -3.008 v -3.584 q -1.664,3.616 -6.272,3.68 -2.944,0 -4.608,-1.728 -1.664,-1.76 -1.664,-4.832 v -10.464 h 3.008 v 9.664 q 0,2.144 1.152,3.36 1.184,1.184 3.232,1.184 2.368,-0.032 3.744,-1.664 1.408,-1.664 1.408,-4.224 v -8.32 z" stroke-width="0" stroke-linejoin="miter" stroke-miterlimit="2" fill="#938f8b" stroke="#938f8b" transform="translate(0 374.6376000000001) translate(184.87775 56.816) scale(1) translate(-183.711 16.928)" data-darkreader-inline-fill="" data-darkreader-inline-stroke=""></path>
        <path id="path231144" style="font-style: normal; font-weight: 400; font-size: 32px; line-height: 1; font-family: Montserrat; font-variant-ligatures: none; text-align: center; text-anchor: middle; --darkreader-inline-fill: #a1998d; --darkreader-inline-stroke: #a1998d;" d="m 214.125,-1.12 q -1.952,1.248 -3.968,1.248 -2.016,0 -3.264,-1.184 -1.248,-1.216 -1.248,-3.648 v -9.376 h -2.4 v -2.272 h 2.4 v -4.544 h 3.008 v 4.544 h 5.184 v 2.272 h -5.184 v 8.832 q 0,1.408 0.512,2.016 0.512,0.608 1.536,0.608 1.216,0 2.624,-0.8 z" stroke-width="0" stroke-linejoin="miter" stroke-miterlimit="2" fill="#938f8b" stroke="#938f8b" transform="translate(0 374.6376000000001) translate(204.41174999999998 52.848) scale(1) translate(-203.245 20.896)" data-darkreader-inline-fill="" data-darkreader-inline-stroke=""></path>
        <path id="path231146" style="font-style: normal; font-weight: 400; font-size: 32px; line-height: 1; font-family: Montserrat; font-variant-ligatures: none; text-align: center; text-anchor: middle; --darkreader-inline-fill: #a1998d; --darkreader-inline-stroke: #a1998d;" d="m 224.5145,-17.024 q 2.528,0 4.48,1.088 1.984,1.088 3.072,3.04 1.12,1.92 1.12,4.416 0,2.496 -1.12,4.448 -1.088,1.952 -3.072,3.04 -1.952,1.088 -4.48,1.088 -2.56,0 -4.544,-1.088 -1.952,-1.088 -3.072,-3.008 -1.088,-1.952 -1.088,-4.48 0,-2.496 1.088,-4.416 1.12,-1.952 3.072,-3.04 1.984,-1.088 4.544,-1.088 z m 0,2.592 q -1.664,0 -2.976,0.768 -1.28,0.768 -2.016,2.144 -0.704,1.344 -0.704,3.072 0,1.76 0.704,3.136 0.736,1.376 2.016,2.144 1.312,0.736 2.976,0.736 1.632,0 2.912,-0.736 1.312,-0.768 2.016,-2.144 0.736,-1.376 0.736,-3.136 0,-1.728 -0.736,-3.072 -0.704,-1.376 -2.016,-2.144 -1.28,-0.768 -2.912,-0.768 z" stroke-width="0" stroke-linejoin="miter" stroke-miterlimit="2" fill="#938f8b" stroke="#938f8b" transform="translate(0 374.6376000000001) translate(216.97724999999997 56.72) scale(1) translate(-215.8105 17.024)" data-darkreader-inline-fill="" data-darkreader-inline-stroke=""></path>
        <path id="path231148" style="font-style: normal; font-weight: 400; font-size: 32px; line-height: 1; font-family: Montserrat; font-variant-ligatures: none; text-align: center; text-anchor: middle; --darkreader-inline-fill: #a1998d; --darkreader-inline-stroke: #a1998d;" d="m 259.2055,-17.024 q 2.912,0 4.576,1.76 1.664,1.76 1.664,4.8 V 0 h -3.008 v -9.664 q 0,-2.144 -1.184,-3.36 -1.152,-1.216 -3.2,-1.216 -2.4,0.064 -3.776,1.696 -1.376,1.632 -1.376,4.192 V 0 h -3.008 v -9.664 q 0,-2.144 -1.152,-3.36 -1.152,-1.216 -3.232,-1.216 -2.4,0.064 -3.808,1.696 -1.376,1.632 -1.376,4.192 V 0 h -2.976 v -16.928 h 2.976 v 3.552 q 1.664,-3.584 6.304,-3.648 2.336,0 3.872,1.12 1.568,1.12 2.112,3.136 1.568,-4.192 6.592,-4.256 z" stroke-width="0" stroke-linejoin="miter" stroke-miterlimit="2" fill="#938f8b" stroke="#938f8b" transform="translate(0 374.6376000000001) translate(238.51624999999999 56.72) scale(1) translate(-237.3495 17.024)" data-darkreader-inline-fill="" data-darkreader-inline-stroke=""></path>
        <path id="path231150" style="font-style: normal; font-weight: 400; font-size: 32px; line-height: 1; font-family: Montserrat; font-variant-ligatures: none; text-align: center; text-anchor: middle; --darkreader-inline-fill: #a1998d; --darkreader-inline-stroke: #a1998d;" d="m 281.123,0 v -2.368 q -1.888,2.496 -5.92,2.496 -1.76,0 -3.104,-0.672 -1.312,-0.672 -2.048,-1.856 -0.704,-1.184 -0.704,-2.656 0,-2.272 1.664,-3.584 1.696,-1.344 4.704,-1.376 h 5.376 v -0.8 q 0,-1.792 -1.12,-2.752 -1.088,-0.992 -3.2,-0.992 -2.56,0 -5.216,1.824 l -1.248,-2.048 q 1.824,-1.184 3.36,-1.696 1.568,-0.544 3.712,-0.544 3.168,0 4.896,1.568 1.728,1.536 1.76,4.32 L 284.067,0 Z m -5.312,-2.336 q 2.08,0 3.52,-0.992 1.472,-1.024 1.76,-2.688 v -1.696 h -4.96 q -2.016,0 -3.008,0.608 -0.96,0.608 -0.96,1.92 0,1.312 0.992,2.08 0.992,0.768 2.656,0.768 z" stroke-width="0" stroke-linejoin="miter" stroke-miterlimit="2" fill="#938f8b" stroke="#938f8b" transform="translate(0 374.6376000000001) translate(270.51374999999996 56.72) scale(1) translate(-269.347 17.024)" data-darkreader-inline-fill="" data-darkreader-inline-stroke=""></path>
        <path id="path231152" style="font-style: normal; font-weight: 400; font-size: 32px; line-height: 1; font-family: Montserrat; font-variant-ligatures: none; text-align: center; text-anchor: middle; --darkreader-inline-fill: #a1998d; --darkreader-inline-stroke: #a1998d;" d="m 298.4375,-1.12 q -1.952,1.248 -3.968,1.248 -2.016,0 -3.264,-1.184 -1.248,-1.216 -1.248,-3.648 v -9.376 h -2.4 v -2.272 h 2.4 v -4.544 h 3.008 v 4.544 h 5.184 v 2.272 h -5.184 v 8.832 q 0,1.408 0.512,2.016 0.512,0.608 1.536,0.608 1.216,0 2.624,-0.8 z" stroke-width="0" stroke-linejoin="miter" stroke-miterlimit="2" fill="#938f8b" stroke="#938f8b" transform="translate(0 374.6376000000001) translate(288.72425 52.848) scale(1) translate(-287.5575 20.896)" data-darkreader-inline-fill="" data-darkreader-inline-stroke=""></path>
        <path id="path231154" style="font-style: normal; font-weight: 400; font-size: 32px; line-height: 1; font-family: Montserrat; font-variant-ligatures: none; text-align: center; text-anchor: middle; --darkreader-inline-fill: #a1998d; --darkreader-inline-stroke: #a1998d;" d="m 302.037,-16.928 h 2.976 V 0 h -2.976 z m 1.472,-6.752 q 0.8,0 1.312,0.544 0.544,0.544 0.544,1.376 0,0.832 -0.544,1.376 -0.512,0.544 -1.312,0.544 -0.8,0 -1.344,-0.544 -0.512,-0.544 -0.512,-1.376 0,-0.832 0.512,-1.376 0.544,-0.544 1.344,-0.544 z" stroke-width="0" stroke-linejoin="miter" stroke-miterlimit="2" fill="#938f8b" stroke="#938f8b" transform="translate(0 374.6376000000001) translate(302.81975 50.064) scale(1) translate(-301.653 23.68)" data-darkreader-inline-fill="" data-darkreader-inline-stroke=""></path>
        <path id="path231156" style="font-style: normal; font-weight: 400; font-size: 32px; line-height: 1; font-family: Montserrat; font-variant-ligatures: none; text-align: center; text-anchor: middle; --darkreader-inline-fill: #a1998d; --darkreader-inline-stroke: #a1998d;" d="m 322.659,-12.416 q -2.016,-1.952 -4.832,-1.952 -1.664,0 -2.976,0.736 -1.28,0.736 -2.016,2.08 -0.736,1.344 -0.736,3.104 0,1.76 0.704,3.104 0.736,1.344 1.984,2.112 1.28,0.736 2.912,0.736 1.632,0 2.944,-0.544 1.312,-0.544 2.176,-1.568 l 1.696,1.728 q -1.152,1.44 -2.944,2.208 -1.76,0.768 -4,0.768 -2.464,0 -4.384,-1.088 -1.92,-1.088 -3.008,-3.008 -1.056,-1.952 -1.056,-4.448 0,-2.496 1.056,-4.448 1.088,-1.952 3.008,-3.04 1.92,-1.088 4.384,-1.088 2.144,0 3.84,0.672 1.728,0.64 2.88,1.888 z" stroke-width="0" stroke-linejoin="miter" stroke-miterlimit="2" fill="#938f8b" stroke="#938f8b" transform="translate(0 374.6376000000001) translate(310.28974999999997 56.72) scale(1) translate(-309.123 17.024)" data-darkreader-inline-fill="" data-darkreader-inline-stroke=""></path>
        <path id="path231158" style="font-style: normal; font-weight: 400; font-size: 32px; line-height: 1; font-family: Montserrat; font-variant-ligatures: none; text-align: center; text-anchor: middle; --darkreader-inline-fill: #a1998d; --darkreader-inline-stroke: #a1998d;" d="m 354.09,0 -2.368,-5.44 H 339.914 L 337.578,0 h -3.232 l 9.952,-22.4 h 3.2 l 9.92,22.4 z m -12.96,-8.224 h 9.408 l -4.736,-10.88 z" stroke-width="0" stroke-linejoin="miter" stroke-miterlimit="2" fill="#938f8b" stroke="#938f8b" transform="translate(0 374.6376000000001) translate(335.51275 51.344) scale(1) translate(-334.346 22.4)" data-darkreader-inline-fill="" data-darkreader-inline-stroke=""></path>
        <path id="path231160" style="font-style: normal; font-weight: 400; font-size: 32px; line-height: 1; font-family: Montserrat; font-variant-ligatures: none; text-align: center; text-anchor: middle; --darkreader-inline-fill: #a1998d; --darkreader-inline-stroke: #a1998d;" d="m 368.625,-1.12 q -1.952,1.248 -3.968,1.248 -2.016,0 -3.264,-1.184 -1.248,-1.216 -1.248,-3.648 v -9.376 h -2.4 v -2.272 h 2.4 v -4.544 h 3.008 v 4.544 h 5.184 v 2.272 h -5.184 v 8.832 q 0,1.408 0.512,2.016 0.512,0.608 1.536,0.608 1.216,0 2.624,-0.8 z" stroke-width="0" stroke-linejoin="miter" stroke-miterlimit="2" fill="#938f8b" stroke="#938f8b" transform="translate(0 374.6376000000001) translate(358.91175 52.848) scale(1) translate(-357.745 20.896)" data-darkreader-inline-fill="" data-darkreader-inline-stroke=""></path>
        <path id="path231162" style="font-style: normal; font-weight: 400; font-size: 32px; line-height: 1; font-family: Montserrat; font-variant-ligatures: none; text-align: center; text-anchor: middle; --darkreader-inline-fill: #a1998d; --darkreader-inline-stroke: #a1998d;" d="m 381.3125,-1.12 q -1.952,1.248 -3.968,1.248 -2.016,0 -3.264,-1.184 -1.248,-1.216 -1.248,-3.648 v -9.376 h -2.4 v -2.272 h 2.4 v -4.544 h 3.008 v 4.544 h 5.184 v 2.272 h -5.184 v 8.832 q 0,1.408 0.512,2.016 0.512,0.608 1.536,0.608 1.216,0 2.624,-0.8 z" stroke-width="0" stroke-linejoin="miter" stroke-miterlimit="2" fill="#938f8b" stroke="#938f8b" transform="translate(0 374.6376000000001) translate(371.59925 52.848) scale(1) translate(-370.4325 20.896)" data-darkreader-inline-fill="" data-darkreader-inline-stroke=""></path>
        <path id="path231164" style="font-style: normal; font-weight: 400; font-size: 32px; line-height: 1; font-family: Montserrat; font-variant-ligatures: none; text-align: center; text-anchor: middle; --darkreader-inline-fill: #a1998d; --darkreader-inline-stroke: #a1998d;" d="m 391.446,-17.024 q 3.936,0 5.952,2.336 2.016,2.304 2.016,6.432 0,0.64 -0.032,0.96 h -13.376 q 0.352,2.272 1.888,3.616 1.568,1.344 3.84,1.344 1.504,0 2.784,-0.544 1.312,-0.544 2.272,-1.536 l 1.632,1.696 q -1.248,1.344 -3.008,2.08 -1.76,0.736 -3.904,0.736 -2.496,0 -4.448,-1.056 -1.92,-1.088 -3.008,-3.04 -1.056,-1.952 -1.056,-4.448 0,-2.496 1.056,-4.416 1.088,-1.952 3.008,-3.04 1.92,-1.12 4.384,-1.12 z m 5.28,7.424 q -0.128,-2.304 -1.536,-3.616 -1.408,-1.344 -3.712,-1.344 -2.24,0 -3.744,1.344 -1.472,1.344 -1.76,3.616 z" stroke-width="0" stroke-linejoin="miter" stroke-miterlimit="2" fill="#938f8b" stroke="#938f8b" transform="translate(0 374.6376000000001) translate(384.16474999999997 56.72) scale(1) translate(-382.998 17.024)" data-darkreader-inline-fill="" data-darkreader-inline-stroke=""></path>
        <path id="path231166" style="font-style: normal; font-weight: 400; font-size: 32px; line-height: 1; font-family: Montserrat; font-variant-ligatures: none; text-align: center; text-anchor: middle; --darkreader-inline-fill: #a1998d; --darkreader-inline-stroke: #a1998d;" d="m 412.8825,-17.024 q 2.976,0 4.672,1.76 1.696,1.728 1.696,4.8 V 0 h -2.976 v -9.664 q 0,-2.144 -1.216,-3.328 -1.184,-1.216 -3.296,-1.216 -2.272,0.032 -3.712,1.472 -1.408,1.408 -1.6,3.68 V 0 h -2.976 v -16.928 h 2.976 v 3.584 q 1.696,-3.616 6.432,-3.68 z" stroke-width="0" stroke-linejoin="miter" stroke-miterlimit="2" fill="#938f8b" stroke="#938f8b" transform="translate(0 374.6376000000001) translate(404.64124999999996 56.72) scale(1) translate(-403.4745 17.024)" data-darkreader-inline-fill="" data-darkreader-inline-stroke=""></path>
        <path id="path231168" style="font-style: normal; font-weight: 400; font-size: 32px; line-height: 1; font-family: Montserrat; font-variant-ligatures: none; text-align: center; text-anchor: middle; --darkreader-inline-fill: #a1998d; --darkreader-inline-stroke: #a1998d;" d="M 440.313,-23.744 V 0 h -2.976 v -3.36 q -0.96,1.696 -2.592,2.624 -1.6,0.896 -3.744,0.896 -2.4,0 -4.256,-1.088 -1.824,-1.12 -2.848,-3.072 -1.024,-1.984 -1.024,-4.512 0,-2.496 1.024,-4.416 1.024,-1.952 2.848,-3.04 1.856,-1.088 4.224,-1.088 2.176,0 3.808,0.896 1.632,0.896 2.56,2.592 V -23.744 Z M 431.609,-2.4 q 1.664,0 2.944,-0.768 1.312,-0.768 2.048,-2.144 0.736,-1.376 0.736,-3.104 0,-1.76 -0.736,-3.136 -0.736,-1.376 -2.048,-2.144 -1.28,-0.768 -2.944,-0.768 -1.664,0 -2.976,0.8 -1.28,0.768 -2.016,2.144 -0.736,1.376 -0.736,3.104 0,1.728 0.736,3.104 0.736,1.376 2.016,2.144 1.312,0.768 2.976,0.768 z" stroke-width="0" stroke-linejoin="miter" stroke-miterlimit="2" fill="#938f8b" stroke="#938f8b" transform="translate(0 374.6376000000001) translate(424.03974999999997 50) scale(1) translate(-422.873 23.744)" data-darkreader-inline-fill="" data-darkreader-inline-stroke=""></path>
        <path id="path231170" style="font-style: normal; font-weight: 400; font-size: 32px; line-height: 1; font-family: Montserrat; font-variant-ligatures: none; text-align: center; text-anchor: middle; --darkreader-inline-fill: #a1998d; --darkreader-inline-stroke: #a1998d;" d="m 453.071,-17.024 q 3.936,0 5.952,2.336 2.016,2.304 2.016,6.432 0,0.64 -0.032,0.96 h -13.376 q 0.352,2.272 1.888,3.616 1.568,1.344 3.84,1.344 1.504,0 2.784,-0.544 1.312,-0.544 2.272,-1.536 l 1.632,1.696 q -1.248,1.344 -3.008,2.08 -1.76,0.736 -3.904,0.736 -2.496,0 -4.448,-1.056 -1.92,-1.088 -3.008,-3.04 -1.056,-1.952 -1.056,-4.448 0,-2.496 1.056,-4.416 1.088,-1.952 3.008,-3.04 1.92,-1.12 4.384,-1.12 z m 5.28,7.424 q -0.128,-2.304 -1.536,-3.616 -1.408,-1.344 -3.712,-1.344 -2.24,0 -3.744,1.344 -1.472,1.344 -1.76,3.616 z" stroke-width="0" stroke-linejoin="miter" stroke-miterlimit="2" fill="#938f8b" stroke="#938f8b" transform="translate(0 374.6376000000001) translate(445.78974999999997 56.72) scale(1) translate(-444.623 17.024)" data-darkreader-inline-fill="" data-darkreader-inline-stroke=""></path>
        <path id="path231172" style="font-style: normal; font-weight: 400; font-size: 32px; line-height: 1; font-family: Montserrat; font-variant-ligatures: none; text-align: center; text-anchor: middle; --darkreader-inline-fill: #a1998d; --darkreader-inline-stroke: #a1998d;" d="m 474.5075,-17.024 q 2.976,0 4.672,1.76 1.696,1.728 1.696,4.8 V 0 h -2.976 v -9.664 q 0,-2.144 -1.216,-3.328 -1.184,-1.216 -3.296,-1.216 -2.272,0.032 -3.712,1.472 -1.408,1.408 -1.6,3.68 V 0 h -2.976 v -16.928 h 2.976 v 3.584 q 1.696,-3.616 6.432,-3.68 z" stroke-width="0" stroke-linejoin="miter" stroke-miterlimit="2" fill="#938f8b" stroke="#938f8b" transform="translate(0 374.6376000000001) translate(466.26624999999996 56.72) scale(1) translate(-465.0995 17.024)" data-darkreader-inline-fill="" data-darkreader-inline-stroke=""></path>
        <path id="path231174" style="font-style: normal; font-weight: 400; font-size: 32px; line-height: 1; font-family: Montserrat; font-variant-ligatures: none; text-align: center; text-anchor: middle; --darkreader-inline-fill: #a1998d; --darkreader-inline-stroke: #a1998d;" d="m 498.034,-12.416 q -2.016,-1.952 -4.832,-1.952 -1.664,0 -2.976,0.736 -1.28,0.736 -2.016,2.08 -0.736,1.344 -0.736,3.104 0,1.76 0.704,3.104 0.736,1.344 1.984,2.112 1.28,0.736 2.912,0.736 1.632,0 2.944,-0.544 1.312,-0.544 2.176,-1.568 l 1.696,1.728 q -1.152,1.44 -2.944,2.208 -1.76,0.768 -4,0.768 -2.464,0 -4.384,-1.088 -1.92,-1.088 -3.008,-3.008 -1.056,-1.952 -1.056,-4.448 0,-2.496 1.056,-4.448 1.088,-1.952 3.008,-3.04 1.92,-1.088 4.384,-1.088 2.144,0 3.84,0.672 1.728,0.64 2.88,1.888 z" stroke-width="0" stroke-linejoin="miter" stroke-miterlimit="2" fill="#938f8b" stroke="#938f8b" transform="translate(0 374.6376000000001) translate(485.66474999999997 56.72) scale(1) translate(-484.498 17.024)" data-darkreader-inline-fill="" data-darkreader-inline-stroke=""></path>
        <path id="path231176" style="font-style: normal; font-weight: 400; font-size: 32px; line-height: 1; font-family: Montserrat; font-variant-ligatures: none; text-align: center; text-anchor: middle; --darkreader-inline-fill: #a1998d; --darkreader-inline-stroke: #a1998d;" d="m 510.196,-17.024 q 3.936,0 5.952,2.336 2.016,2.304 2.016,6.432 0,0.64 -0.032,0.96 h -13.376 q 0.352,2.272 1.888,3.616 1.568,1.344 3.84,1.344 1.504,0 2.784,-0.544 1.312,-0.544 2.272,-1.536 l 1.632,1.696 q -1.248,1.344 -3.008,2.08 -1.76,0.736 -3.904,0.736 -2.496,0 -4.448,-1.056 -1.92,-1.088 -3.008,-3.04 -1.056,-1.952 -1.056,-4.448 0,-2.496 1.056,-4.416 1.088,-1.952 3.008,-3.04 1.92,-1.12 4.384,-1.12 z m 5.28,7.424 q -0.128,-2.304 -1.536,-3.616 -1.408,-1.344 -3.712,-1.344 -2.24,0 -3.744,1.344 -1.472,1.344 -1.76,3.616 z" stroke-width="0" stroke-linejoin="miter" stroke-miterlimit="2" fill="#938f8b" stroke="#938f8b" transform="translate(0 374.6376000000001) translate(502.91474999999997 56.72) scale(1) translate(-501.748 17.024)" data-darkreader-inline-fill="" data-darkreader-inline-stroke=""></path>
        <path id="path231178" style="font-style: normal; font-weight: 400; font-size: 32px; line-height: 1; font-family: Montserrat; font-variant-ligatures: none; text-align: center; text-anchor: middle; --darkreader-inline-fill: #a1998d; --darkreader-inline-stroke: #a1998d;" d="m 530.8875,-22.4 h 3.648 l 8.192,15.744 8.128,-15.744 h 3.68 V 0 h -2.88 l -0.032,-17.888 -7.968,15.52 h -1.888 l -8.032,-15.52 V 0 h -2.848 z" stroke-width="0" stroke-linejoin="miter" stroke-miterlimit="2" fill="#938f8b" stroke="#938f8b" transform="translate(0 374.6376000000001) translate(532.05425 51.344) scale(1) translate(-530.8875 22.4)" data-darkreader-inline-fill="" data-darkreader-inline-stroke=""></path>
        <path id="path231180" style="font-style: normal; font-weight: 400; font-size: 32px; line-height: 1; font-family: Montserrat; font-variant-ligatures: none; text-align: center; text-anchor: middle; --darkreader-inline-fill: #a1998d; --darkreader-inline-stroke: #a1998d;" d="m 570.998,0 v -2.368 q -1.888,2.496 -5.92,2.496 -1.76,0 -3.104,-0.672 -1.312,-0.672 -2.048,-1.856 -0.704,-1.184 -0.704,-2.656 0,-2.272 1.664,-3.584 1.696,-1.344 4.704,-1.376 h 5.376 v -0.8 q 0,-1.792 -1.12,-2.752 -1.088,-0.992 -3.2,-0.992 -2.56,0 -5.216,1.824 l -1.248,-2.048 q 1.824,-1.184 3.36,-1.696 1.568,-0.544 3.712,-0.544 3.168,0 4.896,1.568 1.728,1.536 1.76,4.32 L 573.942,0 Z m -5.312,-2.336 q 2.08,0 3.52,-0.992 1.472,-1.024 1.76,-2.688 v -1.696 h -4.96 q -2.016,0 -3.008,0.608 -0.96,0.608 -0.96,1.92 0,1.312 0.992,2.08 0.992,0.768 2.656,0.768 z" stroke-width="0" stroke-linejoin="miter" stroke-miterlimit="2" fill="#938f8b" stroke="#938f8b" transform="translate(0 374.6376000000001) translate(560.38875 56.72) scale(1) translate(-559.222 17.024)" data-darkreader-inline-fill="" data-darkreader-inline-stroke=""></path>
        <path id="path231182" style="font-style: normal; font-weight: 400; font-size: 32px; line-height: 1; font-family: Montserrat; font-variant-ligatures: none; text-align: center; text-anchor: middle; --darkreader-inline-fill: #a1998d; --darkreader-inline-stroke: #a1998d;" d="m 588.6325,-17.024 q 2.976,0 4.672,1.76 1.696,1.728 1.696,4.8 V 0 h -2.976 v -9.664 q 0,-2.144 -1.216,-3.328 -1.184,-1.216 -3.296,-1.216 -2.272,0.032 -3.712,1.472 -1.408,1.408 -1.6,3.68 V 0 h -2.976 v -16.928 h 2.976 v 3.584 q 1.696,-3.616 6.432,-3.68 z" stroke-width="0" stroke-linejoin="miter" stroke-miterlimit="2" fill="#938f8b" stroke="#938f8b" transform="translate(0 374.6376000000001) translate(580.39125 56.72) scale(1) translate(-579.2245 17.024)" data-darkreader-inline-fill="" data-darkreader-inline-stroke=""></path>
        <path id="path231184" style="font-style: normal; font-weight: 400; font-size: 32px; line-height: 1; font-family: Montserrat; font-variant-ligatures: none; text-align: center; text-anchor: middle; --darkreader-inline-fill: #a1998d; --darkreader-inline-stroke: #a1998d;" d="m 610.623,0 v -2.368 q -1.888,2.496 -5.92,2.496 -1.76,0 -3.104,-0.672 -1.312,-0.672 -2.048,-1.856 -0.704,-1.184 -0.704,-2.656 0,-2.272 1.664,-3.584 1.696,-1.344 4.704,-1.376 h 5.376 v -0.8 q 0,-1.792 -1.12,-2.752 -1.088,-0.992 -3.2,-0.992 -2.56,0 -5.216,1.824 l -1.248,-2.048 q 1.824,-1.184 3.36,-1.696 1.568,-0.544 3.712,-0.544 3.168,0 4.896,1.568 1.728,1.536 1.76,4.32 L 613.567,0 Z m -5.312,-2.336 q 2.08,0 3.52,-0.992 1.472,-1.024 1.76,-2.688 v -1.696 h -4.96 q -2.016,0 -3.008,0.608 -0.96,0.608 -0.96,1.92 0,1.312 0.992,2.08 0.992,0.768 2.656,0.768 z" stroke-width="0" stroke-linejoin="miter" stroke-miterlimit="2" fill="#938f8b" stroke="#938f8b" transform="translate(0 374.6376000000001) translate(600.01375 56.72) scale(1) translate(-598.847 17.024)" data-darkreader-inline-fill="" data-darkreader-inline-stroke=""></path>
        <path id="path231186" style="font-style: normal; font-weight: 400; font-size: 32px; line-height: 1; font-family: Montserrat; font-variant-ligatures: none; text-align: center; text-anchor: middle; --darkreader-inline-fill: #a1998d; --darkreader-inline-stroke: #a1998d;" d="m 633.8255,-16.928 v 15.2 q 0,2.432 -1.088,4.256 -1.056,1.824 -3.008,2.784 -1.952,0.992 -4.544,0.992 -3.744,0 -6.976,-2.368 l 1.312,-2.176 q 1.248,1.024 2.592,1.504 1.344,0.512 2.944,0.512 2.624,0 4.192,-1.472 1.568,-1.472 1.568,-3.936 V -4 q -0.896,1.536 -2.432,2.4 -1.536,0.832 -3.52,0.832 -2.272,0 -4.032,-1.024 -1.728,-1.056 -2.688,-2.912 -0.96,-1.856 -0.96,-4.256 0,-2.368 0.96,-4.192 0.96,-1.824 2.688,-2.848 1.76,-1.024 4.032,-1.024 2.016,0 3.52,0.832 1.536,0.832 2.432,2.368 v -3.104 z m -8.384,13.76 q 1.568,0 2.784,-0.736 1.216,-0.736 1.888,-2.016 0.704,-1.312 0.704,-2.944 0,-1.664 -0.704,-2.944 -0.672,-1.312 -1.888,-2.048 -1.216,-0.736 -2.784,-0.736 -1.568,0 -2.816,0.736 -1.216,0.736 -1.92,2.048 -0.704,1.28 -0.704,2.944 0.032,2.496 1.536,4.096 1.504,1.6 3.904,1.6 z" stroke-width="0" stroke-linejoin="miter" stroke-miterlimit="2" fill="#938f8b" stroke="#938f8b" transform="translate(0 374.6376000000001) translate(618.35225 56.72) scale(1) translate(-617.1855 17.024)" data-darkreader-inline-fill="" data-darkreader-inline-stroke=""></path>
        <path id="path231188" style="font-style: normal; font-weight: 400; font-size: 32px; line-height: 1; font-family: Montserrat; font-variant-ligatures: none; text-align: center; text-anchor: middle; --darkreader-inline-fill: #a1998d; --darkreader-inline-stroke: #a1998d;" d="m 646.071,-17.024 q 3.936,0 5.952,2.336 2.016,2.304 2.016,6.432 0,0.64 -0.032,0.96 h -13.376 q 0.352,2.272 1.888,3.616 1.568,1.344 3.84,1.344 1.504,0 2.784,-0.544 1.312,-0.544 2.272,-1.536 l 1.632,1.696 q -1.248,1.344 -3.008,2.08 -1.76,0.736 -3.904,0.736 -2.496,0 -4.448,-1.056 -1.92,-1.088 -3.008,-3.04 -1.056,-1.952 -1.056,-4.448 0,-2.496 1.056,-4.416 1.088,-1.952 3.008,-3.04 1.92,-1.12 4.384,-1.12 z m 5.28,7.424 q -0.128,-2.304 -1.536,-3.616 -1.408,-1.344 -3.712,-1.344 -2.24,0 -3.744,1.344 -1.472,1.344 -1.76,3.616 z" stroke-width="0" stroke-linejoin="miter" stroke-miterlimit="2" fill="#938f8b" stroke="#938f8b" transform="translate(0 374.6376000000001) translate(638.78975 56.72) scale(1) translate(-637.623 17.024)" data-darkreader-inline-fill="" data-darkreader-inline-stroke=""></path>
        <path id="path231190" style="font-style: normal; font-weight: 400; font-size: 32px; line-height: 1; font-family: Montserrat; font-variant-ligatures: none; text-align: center; text-anchor: middle; --darkreader-inline-fill: #a1998d; --darkreader-inline-stroke: #a1998d;" d="m 679.9555,-17.024 q 2.912,0 4.576,1.76 1.664,1.76 1.664,4.8 V 0 h -3.008 v -9.664 q 0,-2.144 -1.184,-3.36 -1.152,-1.216 -3.2,-1.216 -2.4,0.064 -3.776,1.696 -1.376,1.632 -1.376,4.192 V 0 h -3.008 v -9.664 q 0,-2.144 -1.152,-3.36 -1.152,-1.216 -3.232,-1.216 -2.4,0.064 -3.808,1.696 -1.376,1.632 -1.376,4.192 V 0 h -2.976 v -16.928 h 2.976 v 3.552 q 1.664,-3.584 6.304,-3.648 2.336,0 3.872,1.12 1.568,1.12 2.112,3.136 1.568,-4.192 6.592,-4.256 z" stroke-width="0" stroke-linejoin="miter" stroke-miterlimit="2" fill="#938f8b" stroke="#938f8b" transform="translate(0 374.6376000000001) translate(659.26625 56.72) scale(1) translate(-658.0995 17.024)" data-darkreader-inline-fill="" data-darkreader-inline-stroke=""></path>
        <path id="path231192" style="font-style: normal; font-weight: 400; font-size: 32px; line-height: 1; font-family: Montserrat; font-variant-ligatures: none; text-align: center; text-anchor: middle; --darkreader-inline-fill: #a1998d; --darkreader-inline-stroke: #a1998d;" d="m 698.321,-17.024 q 3.936,0 5.952,2.336 2.016,2.304 2.016,6.432 0,0.64 -0.032,0.96 h -13.376 q 0.352,2.272 1.888,3.616 1.568,1.344 3.84,1.344 1.504,0 2.784,-0.544 1.312,-0.544 2.272,-1.536 l 1.632,1.696 q -1.248,1.344 -3.008,2.08 -1.76,0.736 -3.904,0.736 -2.496,0 -4.448,-1.056 -1.92,-1.088 -3.008,-3.04 -1.056,-1.952 -1.056,-4.448 0,-2.496 1.056,-4.416 1.088,-1.952 3.008,-3.04 1.92,-1.12 4.384,-1.12 z m 5.28,7.424 q -0.128,-2.304 -1.536,-3.616 -1.408,-1.344 -3.712,-1.344 -2.24,0 -3.744,1.344 -1.472,1.344 -1.76,3.616 z" stroke-width="0" stroke-linejoin="miter" stroke-miterlimit="2" fill="#938f8b" stroke="#938f8b" transform="translate(0 374.6376000000001) translate(691.03975 56.72) scale(1) translate(-689.873 17.024)" data-darkreader-inline-fill="" data-darkreader-inline-stroke=""></path>
        <path id="path231194" style="font-style: normal; font-weight: 400; font-size: 32px; line-height: 1; font-family: Montserrat; font-variant-ligatures: none; text-align: center; text-anchor: middle; --darkreader-inline-fill: #a1998d; --darkreader-inline-stroke: #a1998d;" d="m 719.7575,-17.024 q 2.976,0 4.672,1.76 1.696,1.728 1.696,4.8 V 0 h -2.976 v -9.664 q 0,-2.144 -1.216,-3.328 -1.184,-1.216 -3.296,-1.216 -2.272,0.032 -3.712,1.472 -1.408,1.408 -1.6,3.68 V 0 h -2.976 v -16.928 h 2.976 v 3.584 q 1.696,-3.616 6.432,-3.68 z" stroke-width="0" stroke-linejoin="miter" stroke-miterlimit="2" fill="#938f8b" stroke="#938f8b" transform="translate(0 374.6376000000001) translate(711.51625 56.72) scale(1) translate(-710.3495 17.024)" data-darkreader-inline-fill="" data-darkreader-inline-stroke=""></path>
        <path id="path231196" style="font-style: normal; font-weight: 400; font-size: 32px; line-height: 1; font-family: Montserrat; font-variant-ligatures: none; text-align: center; text-anchor: middle; --darkreader-inline-fill: #a1998d; --darkreader-inline-stroke: #a1998d;" d="m 740.5,-1.12 q -1.952,1.248 -3.968,1.248 -2.016,0 -3.264,-1.184 -1.248,-1.216 -1.248,-3.648 v -9.376 h -2.4 v -2.272 h 2.4 v -4.544 h 3.008 v 4.544 h 5.184 v 2.272 h -5.184 v 8.832 q 0,1.408 0.512,2.016 0.512,0.608 1.536,0.608 1.216,0 2.624,-0.8 z" stroke-width="0" stroke-linejoin="miter" stroke-miterlimit="2" fill="#938f8b" stroke="#938f8b" transform="translate(0 374.6376000000001) translate(730.78675 52.848) scale(1) translate(-729.62 20.896)" data-darkreader-inline-fill="" data-darkreader-inline-stroke=""></path>
        <path id="path231198" style="font-style: normal; font-weight: 400; font-size: 32px; line-height: 1; font-family: Montserrat; font-variant-ligatures: none; text-align: center; text-anchor: middle; --darkreader-inline-fill: #a1998d; --darkreader-inline-stroke: #a1998d;" d="m 765.8505,-17.728 q -1.568,-0.992 -3.264,-1.472 -1.664,-0.512 -3.072,-0.512 -1.952,0 -3.136,0.768 -1.152,0.736 -1.152,2.048 0,1.184 0.704,1.952 0.704,0.736 1.728,1.184 1.024,0.416 2.848,0.992 2.272,0.704 3.68,1.344 1.408,0.64 2.4,1.92 0.992,1.248 0.992,3.328 0,1.92 -1.056,3.36 -1.024,1.44 -2.912,2.24 -1.856,0.768 -4.288,0.768 -2.464,0 -4.8,-0.96 -2.336,-0.96 -4.032,-2.56 l 1.376,-2.656 q 1.6,1.568 3.584,2.432 2.016,0.832 3.904,0.832 2.24,0 3.52,-0.864 1.312,-0.896 1.312,-2.4 0,-1.184 -0.704,-1.952 -0.704,-0.768 -1.792,-1.216 -1.056,-0.448 -2.88,-0.992 -2.24,-0.672 -3.648,-1.312 -1.408,-0.64 -2.4,-1.888 -0.96,-1.248 -0.96,-3.296 0,-1.792 0.992,-3.168 0.992,-1.376 2.784,-2.112 1.792,-0.736 4.16,-0.736 2.016,0 3.936,0.608 1.952,0.576 3.456,1.568 z" stroke-width="0" stroke-linejoin="miter" stroke-miterlimit="2" fill="#938f8b" stroke="#938f8b" transform="translate(0 374.6376000000001) translate(751.65725 51.088) scale(1) translate(-750.4905 22.656)" data-darkreader-inline-fill="" data-darkreader-inline-stroke=""></path>
        <path id="path231200" style="font-style: normal; font-weight: 400; font-size: 32px; line-height: 1; font-family: Montserrat; font-variant-ligatures: none; text-align: center; text-anchor: middle; --darkreader-inline-fill: #a1998d; --darkreader-inline-stroke: #a1998d;" d="m 778.082,2.4 q -0.8,1.952 -2.144,2.944 -1.312,0.992 -3.104,0.992 -1.088,0 -1.984,-0.32 -0.896,-0.32 -1.728,-0.992 l 1.28,-2.336 q 1.12,0.8 2.272,0.8 1.92,0 2.88,-2.176 l 0.64,-1.504 -7.008,-16.736 h 3.136 l 5.376,13.568 5.088,-13.568 h 3.04 z" stroke-width="0" stroke-linejoin="miter" stroke-miterlimit="2" fill="#938f8b" stroke="#938f8b" transform="translate(0 374.6376000000001) translate(770.2887499999999 56.816) scale(1) translate(-769.122 16.928)" data-darkreader-inline-fill="" data-darkreader-inline-stroke=""></path>
        <path id="path231202" style="font-style: normal; font-weight: 400; font-size: 32px; line-height: 1; font-family: Montserrat; font-variant-ligatures: none; text-align: center; text-anchor: middle; --darkreader-inline-fill: #a1998d; --darkreader-inline-stroke: #a1998d;" d="m 797.7225,-13.184 q -1.056,-0.64 -2.336,-1.024 -1.248,-0.384 -2.4,-0.384 -1.344,0 -2.176,0.512 -0.8,0.48 -0.8,1.504 0,1.024 0.896,1.568 0.928,0.512 2.784,1.056 1.76,0.512 2.88,1.024 1.12,0.512 1.888,1.504 0.8,0.992 0.8,2.624 0,2.4 -1.824,3.648 -1.792,1.248 -4.48,1.248 -1.888,0 -3.68,-0.608 -1.76,-0.608 -2.976,-1.728 l 1.12,-2.176 q 1.056,0.96 2.592,1.536 1.568,0.576 3.04,0.576 1.472,0 2.368,-0.544 0.896,-0.544 0.896,-1.664 0,-1.152 -0.96,-1.728 -0.928,-0.576 -2.848,-1.152 -1.696,-0.48 -2.784,-0.96 -1.056,-0.512 -1.824,-1.472 -0.736,-0.96 -0.736,-2.496 0,-2.368 1.728,-3.552 1.728,-1.184 4.32,-1.184 1.536,0 3.008,0.448 1.504,0.416 2.592,1.152 z" stroke-width="0" stroke-linejoin="miter" stroke-miterlimit="2" fill="#938f8b" stroke="#938f8b" transform="translate(0 374.6376000000001) translate(787.46525 56.688) scale(1) translate(-786.2985 17.056)" data-darkreader-inline-fill="" data-darkreader-inline-stroke=""></path>
        <path id="path231204" style="font-style: normal; font-weight: 400; font-size: 32px; line-height: 1; font-family: Montserrat; font-variant-ligatures: none; text-align: center; text-anchor: middle; --darkreader-inline-fill: #a1998d; --darkreader-inline-stroke: #a1998d;" d="m 812.3125,-1.12 q -1.952,1.248 -3.968,1.248 -2.016,0 -3.264,-1.184 -1.248,-1.216 -1.248,-3.648 v -9.376 h -2.4 v -2.272 h 2.4 v -4.544 h 3.008 v 4.544 h 5.184 v 2.272 h -5.184 v 8.832 q 0,1.408 0.512,2.016 0.512,0.608 1.536,0.608 1.216,0 2.624,-0.8 z" stroke-width="0" stroke-linejoin="miter" stroke-miterlimit="2" fill="#938f8b" stroke="#938f8b" transform="translate(0 374.6376000000001) translate(802.59925 52.848) scale(1) translate(-801.4325 20.896)" data-darkreader-inline-fill="" data-darkreader-inline-stroke=""></path>
        <path id="path231206" style="font-style: normal; font-weight: 400; font-size: 32px; line-height: 1; font-family: Montserrat; font-variant-ligatures: none; text-align: center; text-anchor: middle; --darkreader-inline-fill: #a1998d; --darkreader-inline-stroke: #a1998d;" d="m 822.446,-17.024 q 3.936,0 5.952,2.336 2.016,2.304 2.016,6.432 0,0.64 -0.032,0.96 h -13.376 q 0.352,2.272 1.888,3.616 1.568,1.344 3.84,1.344 1.504,0 2.784,-0.544 1.312,-0.544 2.272,-1.536 l 1.632,1.696 q -1.248,1.344 -3.008,2.08 -1.76,0.736 -3.904,0.736 -2.496,0 -4.448,-1.056 -1.92,-1.088 -3.008,-3.04 -1.056,-1.952 -1.056,-4.448 0,-2.496 1.056,-4.416 1.088,-1.952 3.008,-3.04 1.92,-1.12 4.384,-1.12 z m 5.28,7.424 q -0.128,-2.304 -1.536,-3.616 -1.408,-1.344 -3.712,-1.344 -2.24,0 -3.744,1.344 -1.472,1.344 -1.76,3.616 z" stroke-width="0" stroke-linejoin="miter" stroke-miterlimit="2" fill="#938f8b" stroke="#938f8b" transform="translate(0 374.6376000000001) translate(815.16475 56.72) scale(1) translate(-813.998 17.024)" data-darkreader-inline-fill="" data-darkreader-inline-stroke=""></path>
        <path id="path231208" style="font-style: normal; font-weight: 400; font-size: 32px; line-height: 1; font-family: Montserrat; font-variant-ligatures: none; text-align: center; text-anchor: middle; --darkreader-inline-fill: #a1998d; --darkreader-inline-stroke: #a1998d;" d="m 856.3305,-17.024 q 2.912,0 4.576,1.76 1.664,1.76 1.664,4.8 V 0 h -3.008 v -9.664 q 0,-2.144 -1.184,-3.36 -1.152,-1.216 -3.2,-1.216 -2.4,0.064 -3.776,1.696 -1.376,1.632 -1.376,4.192 V 0 h -3.008 v -9.664 q 0,-2.144 -1.152,-3.36 -1.152,-1.216 -3.232,-1.216 -2.4,0.064 -3.808,1.696 -1.376,1.632 -1.376,4.192 V 0 h -2.976 v -16.928 h 2.976 v 3.552 q 1.664,-3.584 6.304,-3.648 2.336,0 3.872,1.12 1.568,1.12 2.112,3.136 1.568,-4.192 6.592,-4.256 z" stroke-width="0" stroke-linejoin="miter" stroke-miterlimit="2" fill="#938f8b" stroke="#938f8b" transform="translate(0 374.6376000000001) translate(835.64125 56.72) scale(1) translate(-834.4745 17.024)" data-darkreader-inline-fill="" data-darkreader-inline-stroke=""></path>
      </g>
      <g id="title" style="font-style:normal;font-weight:700;font-size:72px;line-height:1;font-family:'Brandmark1 Bold';font-variant-ligatures:normal;text-align:center;text-anchor:middle" transform="translate(0 0)">
        <path id="path231211" style="font-style: normal; font-weight: 700; font-size: 72px; line-height: 1; font-family: &quot;Brandmark1 Bold&quot;; font-variant-ligatures: normal; text-align: center; text-anchor: middle; --darkreader-inline-fill: #494f52; --darkreader-inline-stroke: #b1aba1;" d="m 451.25731,-38.016 0.072,2.304 c -2.88,-1.44 -6.048,-2.232 -9.288,-2.232 -2.736,0 -5.472,0.504 -7.992,1.584 -2.448,1.08 -4.608,2.52 -6.552,4.392 -1.872,1.872 -3.312,4.104 -4.392,6.552 -1.008,2.52 -1.584,5.256 -1.584,7.992 0,2.736 0.576,5.472 1.584,7.992 1.08,2.448 2.52,4.608 4.392,6.552 1.944,1.872 4.104,3.312 6.552,4.392 2.52,1.008 5.256,1.584 7.992,1.584 3.24,0 6.408,-0.792 9.288,-2.232 l -0.072,1.656 h 10.8 v -40.536 z m -4.32,28.944 c -1.44,0.864 -3.168,1.368 -4.896,1.368 -5.328,0 -9.72,-4.392 -9.72,-9.72 0,-5.328 4.392,-9.72 9.72,-9.72 1.872,0 3.744,0.504 5.256,1.584 1.584,0.936 2.808,2.376 3.528,4.032 0.648,1.296 0.936,2.664 0.936,4.104 0,1.728 -0.432,3.384 -1.296,4.896 -0.864,1.44 -2.016,2.664 -3.528,3.456 z" stroke-width="0" stroke-linejoin="miter" stroke-miterlimit="2" fill="#aea9a3" stroke="#aea9a3" transform="translate(0 309.5064) translate(312.74888200000004 4.884800000000006) scale(2.2) translate(-421.52131 38.016)" data-darkreader-inline-fill="" data-darkreader-inline-stroke=""></path>
        <path id="path231213" style="font-style: normal; font-weight: 700; font-size: 72px; line-height: 1; font-family: &quot;Brandmark1 Bold&quot;; font-variant-ligatures: normal; text-align: center; text-anchor: middle; --darkreader-inline-fill: #4d5457; --darkreader-inline-stroke: #ada59b;" d="m 494.71044,-38.016 0.072,2.304 c -2.88,-1.44 -6.048,-2.232 -9.288,-2.232 -2.736,0 -5.472,0.504 -7.992,1.584 -2.448,1.08 -4.608,2.52 -6.552,4.392 -1.872,1.872 -3.312,4.104 -4.392,6.552 -1.008,2.52 -1.584,5.256 -1.584,7.992 0,2.736 0.576,5.472 1.584,7.992 1.08,2.448 2.52,4.608 4.392,6.552 1.944,1.872 4.104,3.312 6.552,4.392 2.52,1.008 5.256,1.584 7.992,1.584 3.24,0 6.408,-0.792 9.288,-2.232 l -0.072,1.656 h 10.8 v -40.536 z m -4.32,28.944 c -1.44,0.864 -3.168,1.368 -4.896,1.368 -5.328,0 -9.72,-4.392 -9.72,-9.72 0,-5.328 4.392,-9.72 9.72,-9.72 1.872,0 3.744,0.504 5.256,1.584 1.584,0.936 2.808,2.376 3.528,4.032 0.648,1.296 0.936,2.664 0.936,4.104 0,1.728 -0.432,3.384 -1.296,4.896 -0.864,1.44 -2.016,2.664 -3.528,3.456 z" stroke-width="0" stroke-linejoin="miter" stroke-miterlimit="2" fill="#a6a19c" stroke="#a6a19c" transform="translate(0 309.5064) translate(408.34576799999996 4.884800000000006) scale(2.2) translate(-464.97444 38.016)" data-darkreader-inline-fill="" data-darkreader-inline-stroke=""></path>
        <path id="path231215" style="font-style: normal; font-weight: 700; font-size: 72px; line-height: 1; font-family: &quot;Brandmark1 Bold&quot;; font-variant-ligatures: normal; text-align: center; text-anchor: middle; --darkreader-inline-fill: #535a5d; --darkreader-inline-stroke: #a69f93;" d="m 564.22756,-32.328 c -3.24,-3.24 -7.632,-5.04 -12.24,-5.04 -4.464,0 -8.712,1.656 -11.88,4.752 -3.24,-3.096 -7.488,-4.752 -11.952,-4.752 -2.232,0 -4.464,0.432 -6.48,1.296 v -1.944 h -10.8 V 2.52 h 10.8 v -22.608 c 0,-3.528 2.88,-6.48 6.48,-6.48 3.6,0 6.552,2.952 6.552,6.48 V 2.52 h 10.8 v -22.608 c 0,-3.528 2.88,-6.48 6.48,-6.48 3.6,0 6.552,2.952 6.552,6.48 V 2.52 h 10.8 v -22.608 c 0,-4.608 -1.8,-8.928 -5.112,-12.24 z" stroke-width="0" stroke-linejoin="miter" stroke-miterlimit="2" fill="#9c9792" stroke="#9c9792" transform="translate(0 309.5064) translate(509.3282319999999 4.884800000000006) scale(2.2) translate(-510.87556 38.016)" data-darkreader-inline-fill="" data-darkreader-inline-stroke=""></path>
        <path id="path231217" style="font-style: normal; font-weight: 700; font-size: 72px; line-height: 1; font-family: &quot;Brandmark1 Bold&quot;; font-variant-ligatures: normal; text-align: center; text-anchor: middle; --darkreader-inline-fill: #5f676b; --darkreader-inline-stroke: #999083;" d="m 589.48269,2.952 c 7.272,0 13.176,-5.904 13.176,-13.176 0,-7.272 -5.904,-13.176 -13.176,-13.176 h -3.024 c -1.08,0 -1.872,-0.864 -1.872,-1.872 0,-1.08 0.792,-1.944 1.872,-1.944 h 15.048 V -38.52 h -15.048 c -7.272,0 -13.176,5.976 -13.176,13.248 0,7.272 5.904,13.176 13.176,13.176 h 3.024 c 1.008,0 1.872,0.864 1.872,1.872 0,1.08 -0.864,1.872 -1.872,1.872 h -16.848 V 2.952 Z" stroke-width="0" stroke-linejoin="miter" stroke-miterlimit="2" fill="#85817e" stroke="#85817e" transform="translate(0 309.5064) translate(645.1983179999999 3.775999999999989) scale(2.2) translate(-572.63469 38.52)" data-darkreader-inline-fill="" data-darkreader-inline-stroke=""></path>
      </g>
      <image xlink:href="" id="icon" style="display: none;" x="0" y="0"></image>
    </g>
  </g>
</svg>